<?xml version="1.0" encoding="utf-8"?><svg xmlns="http://www.w3.org/2000/svg" xmlns:xlink="http://www.w3.org/1999/xlink"><symbol viewBox="0 0 20 20" id="add" xmlns="http://www.w3.org/2000/svg"><path d="M10.3333 18.6667C14.9357 18.6667 18.6667 14.9357 18.6667 10.3333C18.6667 5.73096 14.9357 2 10.3333 2C5.73096 2 2 5.73096 2 10.3333C2 14.9357 5.73096 18.6667 10.3333 18.6667Z" stroke-miterlimit="10"/><path d="M5.41663 10H14.5833" stroke-miterlimit="10"/><path d="M10 5.41666V14.5833" stroke-miterlimit="10"/></symbol><symbol viewBox="0 0 16 16" id="close" xmlns="http://www.w3.org/2000/svg"><path d="M15 1L0.999985 15M0.999999 1L15 15" stroke-width="1.5" stroke-linecap="round" stroke-linejoin="round"/></symbol><symbol viewBox="0 0 18 18" id="comment" xmlns="http://www.w3.org/2000/svg"><path d="M5.41773 8.09964C5.23998 8.09964 5.06622 8.15242 4.91842 8.25131C4.77063 8.3502 4.65543 8.49076 4.58741 8.6552C4.51939 8.81965 4.50159 9.0006 4.53627 9.17517C4.57095 9.34975 4.65654 9.51011 4.78223 9.63597C4.90792 9.76183 5.06806 9.84754 5.2424 9.88227C5.41674 9.91699 5.59744 9.89917 5.76166 9.83106C5.92589 9.76294 6.06625 9.64759 6.165 9.49959C6.26376 9.35159 6.31647 9.1776 6.31647 8.9996C6.31647 8.76092 6.22178 8.53201 6.05323 8.36323C5.88469 8.19446 5.65609 8.09964 5.41773 8.09964ZM9.01267 8.09964C8.83491 8.09964 8.66115 8.15242 8.51336 8.25131C8.36556 8.3502 8.25037 8.49076 8.18234 8.6552C8.11432 8.81965 8.09652 9.0006 8.1312 9.17517C8.16588 9.34975 8.25148 9.51011 8.37717 9.63597C8.50286 9.76183 8.66299 9.84754 8.83733 9.88227C9.01167 9.91699 9.19238 9.89917 9.3566 9.83106C9.52082 9.76294 9.66118 9.64759 9.75994 9.49959C9.85869 9.35159 9.9114 9.1776 9.9114 8.9996C9.9114 8.76092 9.81671 8.53201 9.64817 8.36323C9.47962 8.19446 9.25103 8.09964 9.01267 8.09964ZM12.6076 8.09964C12.4298 8.09964 12.2561 8.15242 12.1083 8.25131C11.9605 8.3502 11.8453 8.49076 11.7773 8.6552C11.7093 8.81965 11.6915 9.0006 11.7261 9.17517C11.7608 9.34975 11.8464 9.51011 11.9721 9.63597C12.0978 9.76183 12.2579 9.84754 12.4323 9.88227C12.6066 9.91699 12.7873 9.89917 12.9515 9.83106C13.1158 9.76294 13.2561 9.64759 13.3549 9.49959C13.4536 9.35159 13.5063 9.1776 13.5063 8.9996C13.5063 8.76092 13.4116 8.53201 13.2431 8.36323C13.0746 8.19446 12.846 8.09964 12.6076 8.09964ZM9.01267 0C7.83243 0 6.66376 0.232782 5.57336 0.685054C4.48297 1.13733 3.49221 1.80023 2.65766 2.63592C0.972209 4.32368 0.025332 6.61276 0.025332 8.9996C0.0174752 11.0777 0.736044 13.0931 2.05647 14.6963L0.259003 16.4963C0.134297 16.6228 0.049819 16.7835 0.0162296 16.9581C-0.0173597 17.1327 0.00144417 17.3133 0.0702687 17.4772C0.144916 17.6392 0.265927 17.7752 0.417941 17.8682C0.569955 17.9611 0.746117 18.0067 0.924065 17.9992H9.01267C11.3963 17.9992 13.6822 17.051 15.3677 15.3633C17.0531 13.6755 18 11.3864 18 8.9996C18 6.61276 17.0531 4.32368 15.3677 2.63592C13.6822 0.94817 11.3963 0 9.01267 0ZM9.01267 16.1993H3.09001L3.92583 15.3623C4.09323 15.1937 4.18718 14.9656 4.18718 14.7278C4.18718 14.4901 4.09323 14.262 3.92583 14.0934C2.74902 12.9163 2.01618 11.367 1.85218 9.70948C1.68818 8.05199 2.10315 6.38882 3.02641 5.00335C3.94966 3.61787 5.32408 2.59581 6.91549 2.11128C8.50689 1.62676 10.2168 1.70975 11.754 2.34612C13.2912 2.98249 14.5604 4.13286 15.3455 5.60125C16.1307 7.06964 16.3831 8.7652 16.0597 10.399C15.7364 12.0329 14.8574 13.5039 13.5724 14.5616C12.2874 15.6192 10.676 16.198 9.01267 16.1993Z"/></symbol><symbol viewBox="0 0 24 24" id="delete" xmlns="http://www.w3.org/2000/svg"><path d="M18 6V18C18 19.1046 17.1046 20 16 20H8C6.89543 20 6 19.1046 6 18V6M15 6V5C15 3.89543 14.1046 3 13 3H11C9.89543 3 9 3.89543 9 5V6M4 6H20M10 10V16M14 10V16" stroke-width="1.5" stroke-linecap="round" stroke-linejoin="round"/></symbol><symbol viewBox="0 0 25 25" id="dumbbell" xmlns="http://www.w3.org/2000/svg"><path d="M14.0625 21.9646C14.0625 21.574 13.9073 21.199 13.6313 20.9229L4.07708 11.3687C3.80104 11.0927 3.42604 10.9375 3.03542 10.9375C2.22187 10.9375 1.5625 11.5969 1.5625 12.4104C1.5625 12.801 1.71771 13.176 1.99375 13.4521L11.5474 23.0057C11.8234 23.2818 12.1984 23.437 12.5891 23.437C13.4031 23.4375 14.0625 22.7781 14.0625 21.9646Z" stroke-miterlimit="10"/><path d="M4.07708 15.5354C3.80104 15.2594 3.42604 15.1042 3.03542 15.1042C2.22188 15.1042 1.5625 15.7636 1.5625 16.5771C1.5625 16.9677 1.71771 17.3427 1.99375 17.6188L7.38073 23.0057C7.65677 23.2818 8.03177 23.437 8.4224 23.437C9.23646 23.4375 9.89583 22.7781 9.89583 21.9646C9.89583 21.574 9.74063 21.199 9.46458 20.9229" stroke-miterlimit="10"/><path d="M3.64587 19.2708L2.08337 20.8333L4.16671 22.9166L5.72921 21.3541" stroke-miterlimit="10"/><path d="M10.9375 3.03542C10.9375 3.42604 11.0927 3.80104 11.3687 4.07708L20.9224 13.6307C21.1984 13.9068 21.5734 14.062 21.9641 14.062C22.7781 14.0625 23.4375 13.4031 23.4375 12.5896C23.4375 12.199 23.2823 11.824 23.0063 11.5479L13.4521 1.99375C13.176 1.71771 12.801 1.5625 12.4104 1.5625C11.5969 1.5625 10.9375 2.22187 10.9375 3.03542V3.03542Z" stroke-miterlimit="10"/><path d="M20.9229 9.46458C21.1989 9.74063 21.5739 9.89583 21.9645 9.89583C22.7781 9.89583 23.4375 9.23646 23.4375 8.42292C23.4375 8.03229 23.2823 7.65729 23.0062 7.38125L17.6187 1.99375C17.3427 1.71771 16.9677 1.5625 16.577 1.5625C15.7635 1.5625 15.1041 2.22188 15.1041 3.03542C15.1041 3.42604 15.2593 3.80104 15.5354 4.07708" stroke-miterlimit="10"/><path d="M21.3542 5.72915L22.9167 4.16665L20.8334 2.08331L19.2709 3.64581" stroke-miterlimit="10"/><path d="M7.8125 15.1042L15.1042 7.8125" stroke-miterlimit="10"/><path d="M9.89587 17.1875L17.1875 9.89581" stroke-miterlimit="10"/></symbol><symbol viewBox="0 0 23 24" id="food" xmlns="http://www.w3.org/2000/svg"><path d="M1 11.4967V11.976C0.999915 13.9578 1.53407 15.903 2.54624 17.6068C3.55842 19.3106 5.01118 20.7101 6.75164 21.6579V23H16.3377V21.6579C18.0782 20.7101 19.5309 19.3106 20.5431 17.6068C21.5553 15.903 22.0894 13.9578 22.0893 11.976V11.4967H1Z" stroke-miterlimit="10"/><path d="M18.9319 7.1231L22.311 2.52179" stroke-miterlimit="10"/><path d="M17.7037 6.28432L18.8361 1" stroke-miterlimit="10"/><path d="M2.55771 11.4967C2.29132 10.2012 2.46116 8.85383 3.04073 7.66488C3.62031 6.47592 4.57704 5.51218 5.76173 4.92394C6.94642 4.3357 8.29247 4.15602 9.58997 4.41294C10.8875 4.66986 12.0635 5.34893 12.9346 6.34424" stroke-miterlimit="10"/><path d="M4.53481 11.4967C4.26298 10.6143 4.29894 9.66576 4.63681 8.80647C4.97468 7.94718 5.59442 7.22815 6.39446 6.76721C7.19449 6.30626 8.12738 6.13075 9.04023 6.26943C9.95308 6.40811 10.7918 6.85275 11.4188 7.5305" stroke-miterlimit="10"/><path d="M6.63776 11.4967C6.47168 11.2509 6.3581 10.9735 6.3041 10.6818C6.2501 10.3901 6.25686 10.0904 6.32394 9.80142C6.39103 9.51246 6.517 9.24044 6.69399 9.00237C6.87098 8.76429 7.09517 8.56529 7.35256 8.4178C7.60995 8.27031 7.895 8.1775 8.18988 8.14517C8.48477 8.11284 8.78315 8.14169 9.06638 8.22992C9.34961 8.31814 9.61159 8.46384 9.83596 8.65791C10.0603 8.85198 10.2422 9.09025 10.3703 9.35782" stroke-miterlimit="10"/><path d="M16.7271 11.4967C16.8062 11.2795 16.8318 11.0464 16.8017 10.8172C16.7716 10.5879 16.6866 10.3693 16.554 10.1799C16.4214 9.99053 16.2451 9.83588 16.0401 9.72911C15.835 9.62234 15.6072 9.56659 15.376 9.56659C15.1448 9.56659 14.917 9.62234 14.712 9.72911C14.5069 9.83588 14.3306 9.99053 14.198 10.1799C14.0654 10.3693 13.9805 10.5879 13.9504 10.8172C13.9202 11.0464 13.9458 11.2795 14.025 11.4967" stroke-miterlimit="10"/><path d="M18.6983 11.4967C18.7718 11.0186 18.741 10.5303 18.6081 10.0652C18.4752 9.60016 18.2433 9.16931 17.9284 8.80222C17.6134 8.43513 17.2228 8.14049 16.7833 7.93849C16.3438 7.73648 15.8658 7.6319 15.3821 7.6319C14.8984 7.6319 14.4204 7.73648 13.9809 7.93849C13.5414 8.14049 13.1508 8.43513 12.8358 8.80222C12.5209 9.16931 12.289 9.60016 12.1561 10.0652C12.0232 10.5303 11.9924 11.0186 12.0659 11.4967" stroke-miterlimit="10"/><path d="M20.6274 11.4967C20.6394 11.3409 20.6514 11.1792 20.6514 11.0174C20.6514 9.61908 20.0959 8.27804 19.1071 7.28929C18.1184 6.30053 16.7773 5.74506 15.379 5.74506C13.9807 5.74506 12.6397 6.30053 11.6509 7.28929C10.6622 8.27804 10.1067 9.61908 10.1067 11.0174C10.1067 11.1792 10.1187 11.3409 10.1307 11.4967" stroke-miterlimit="10"/></symbol><symbol viewBox="0 0 25 25" id="water" xmlns="http://www.w3.org/2000/svg"><path d="M17.1875 10.4169H7.8125" stroke-miterlimit="10"/><path d="M7.8125 18.2294H17.1875" stroke-miterlimit="10"/><path d="M17.1874 18.2293C17.4637 18.2293 17.7286 18.3391 17.924 18.5344C18.1193 18.7298 18.2291 18.9947 18.2291 19.271V22.9168C18.2291 23.3312 18.0645 23.7287 17.7714 24.0217C17.4784 24.3147 17.081 24.4793 16.6666 24.4793H8.33325C7.91885 24.4793 7.52142 24.3147 7.2284 24.0217C6.93537 23.7287 6.77075 23.3312 6.77075 22.9168V19.271C6.77075 18.9947 6.8805 18.7298 7.07585 18.5344C7.2712 18.3391 7.53615 18.2293 7.81242 18.2293V10.4168C7.53615 10.4168 7.2712 10.3071 7.07585 10.1117C6.8805 9.91639 6.77075 9.65144 6.77075 9.37517V7.29184C6.77075 6.46304 7.09999 5.66818 7.68604 5.08213C8.27209 4.49608 9.06695 4.16684 9.89575 4.16684H15.1041C15.9329 4.16684 16.7277 4.49608 17.3138 5.08213C17.8998 5.66818 18.2291 6.46304 18.2291 7.29184V9.37517C18.2291 9.65144 18.1193 9.91639 17.924 10.1117C17.7286 10.3071 17.4637 10.4168 17.1874 10.4168V18.2293Z" stroke-miterlimit="10"/><path d="M15.1041 4.16689V1.56272C15.1041 1.28646 14.9943 1.0215 14.799 0.826154C14.6036 0.630804 14.3387 0.521057 14.0624 0.521057H10.9374C10.6612 0.521057 10.3962 0.630804 10.2008 0.826154C10.0055 1.0215 9.89575 1.28646 9.89575 1.56272V4.16689" stroke-miterlimit="10"/></symbol></svg>