<?xml version="1.0" encoding="utf-8"?><svg viewBox="0 0 25 25" xmlns="http://www.w3.org/2000/svg" xmlns:xlink="http://www.w3.org/1999/xlink"><style>:root>svg{display:none}:root>svg:target{display:block}</style><svg fill="none" viewBox="0 0 20 20" id="add" xmlns="http://www.w3.org/2000/svg"><path d="M10.333 18.667a8.333 8.333 0 1 0 0-16.667 8.333 8.333 0 0 0 0 16.667ZM5.417 10h9.166M10 5.417v9.166" stroke="#CAD5FF" stroke-miterlimit="10"/></svg><svg fill="none" viewBox="0 0 16 16" id="close" xmlns="http://www.w3.org/2000/svg"><path d="M15 1 1 15M1 1l14 14" stroke="#5051F9" stroke-width="1.5" stroke-linecap="round" stroke-linejoin="round"/></svg><svg fill="none" viewBox="0 0 18 18" id="comment" xmlns="http://www.w3.org/2000/svg"><path d="M5.418 8.1a.898.898 0 0 0-.882 1.075.9.9 0 0 0 1.226.656.899.899 0 0 0-.344-1.731Zm3.595 0a.898.898 0 0 0-.882 1.075.9.9 0 0 0 1.226.656.9.9 0 0 0-.344-1.731Zm3.595 0a.898.898 0 0 0-.882 1.075.9.9 0 0 0 1.225.656.899.899 0 0 0-.343-1.731ZM9.013 0a8.977 8.977 0 0 0-6.355 2.636A9.006 9.006 0 0 0 .025 9a8.908 8.908 0 0 0 2.031 5.696l-1.797 1.8a.9.9 0 0 0-.189.981.9.9 0 0 0 .854.522h8.089c2.383 0 4.67-.948 6.355-2.636a9.006 9.006 0 0 0 0-12.727A8.981 8.981 0 0 0 9.013 0Zm0 16.2H3.09l.836-.838a.9.9 0 0 0 0-1.269 7.204 7.204 0 0 1 2.99-11.982 7.18 7.18 0 0 1 8.43 3.49 7.207 7.207 0 0 1-1.774 8.96 7.184 7.184 0 0 1-4.56 1.638Z" fill="#94A3BD"/></svg><svg fill="none" viewBox="0 0 24 24" id="delete" xmlns="http://www.w3.org/2000/svg"><path d="M18 6v12a2 2 0 0 1-2 2H8a2 2 0 0 1-2-2V6m9 0V5a2 2 0 0 0-2-2h-2a2 2 0 0 0-2 2v1M4 6h16m-10 4v6m4-6v6" stroke="#94A3BD" stroke-width="1.5" stroke-linecap="round" stroke-linejoin="round"/></svg><svg fill="none" viewBox="0 0 25 25" id="dumbbell" xmlns="http://www.w3.org/2000/svg"><path d="M14.063 21.965c0-.391-.156-.766-.432-1.042l-9.554-9.554a1.474 1.474 0 0 0-2.083 2.083l9.553 9.554a1.473 1.473 0 0 0 2.515-1.041Z" stroke="#fff" stroke-miterlimit="10"/><path d="M4.077 15.535a1.474 1.474 0 0 0-2.083 2.084l5.387 5.387a1.473 1.473 0 0 0 2.084-2.083" stroke="#fff" stroke-miterlimit="10"/><path d="m3.646 19.27-1.563 1.563 2.084 2.084 1.562-1.563M10.938 3.035c0 .391.155.766.43 1.042l9.554 9.554a1.473 1.473 0 0 0 2.084-2.083l-9.554-9.554a1.474 1.474 0 0 0-2.514 1.041Z" stroke="#fff" stroke-miterlimit="10"/><path d="M20.923 9.465a1.473 1.473 0 0 0 2.083-2.084L17.62 1.994a1.473 1.473 0 0 0-2.084 2.083" stroke="#fff" stroke-miterlimit="10"/><path d="m21.354 5.73 1.563-1.563-2.084-2.084-1.562 1.563M7.813 15.104l7.291-7.291M9.896 17.188l7.291-7.292" stroke="#fff" stroke-miterlimit="10"/></svg><svg fill="none" viewBox="0 0 23 24" id="food" xmlns="http://www.w3.org/2000/svg"><path d="M1 11.497v.479a11.024 11.024 0 0 0 5.752 9.682V23h9.586v-1.342a11.024 11.024 0 0 0 5.751-9.682v-.48H1ZM18.932 7.123l3.379-4.601M17.704 6.284 18.836 1" stroke="#5051F9" stroke-miterlimit="10"/><path d="M2.558 11.497a5.991 5.991 0 0 1 10.377-5.153" stroke="#5051F9" stroke-miterlimit="10"/><path d="M4.535 11.497a4.074 4.074 0 0 1 6.884-3.966" stroke="#5051F9" stroke-miterlimit="10"/><path d="M6.638 11.497a2.157 2.157 0 1 1 3.732-2.14M16.727 11.497a1.438 1.438 0 1 0-2.702 0" stroke="#5051F9" stroke-miterlimit="10"/><path d="M18.698 11.497a3.355 3.355 0 1 0-6.632 0" stroke="#5051F9" stroke-miterlimit="10"/><path d="M20.627 11.497a6.25 6.25 0 0 0 .024-.48 5.272 5.272 0 1 0-10.52.48" stroke="#5051F9" stroke-miterlimit="10"/></svg><svg fill="none" viewBox="0 0 25 25" id="water" xmlns="http://www.w3.org/2000/svg"><path d="M17.188 10.417H7.813M7.813 18.23h9.375M17.187 18.23a1.042 1.042 0 0 1 1.042 1.041v3.646a1.562 1.562 0 0 1-1.562 1.562H8.333a1.563 1.563 0 0 1-1.562-1.562V19.27a1.042 1.042 0 0 1 1.041-1.042v-7.812a1.041 1.041 0 0 1-1.041-1.042V7.292a3.125 3.125 0 0 1 3.125-3.125h5.208a3.125 3.125 0 0 1 3.125 3.125v2.083a1.042 1.042 0 0 1-1.042 1.042v7.812ZM15.104 4.167V1.563A1.042 1.042 0 0 0 14.062.52h-3.125a1.042 1.042 0 0 0-1.041 1.042v2.604" stroke="#5051F9" stroke-miterlimit="10"/></svg></svg>